<svg viewBox="0 0 512 512" xmlns="http://www.w3.org/2000/svg"><path d="m502 90v392c0 11.050781-8.949219 20-20 20h-452c-11.050781 0-20-8.949219-20-20v-392zm0 0" fill="#e9eef0"/><path d="m502 30v60h-492v-60c0-11.050781 8.949219-20 20-20h452c11.050781 0 20 8.949219 20 20zm0 0" fill="#adf3ff"/><path d="m442 176v140c0 11.050781-8.949219 20-20 20h-332c-11.050781 0-20-8.949219-20-20v-140c0-11.050781 8.949219-20 20-20h332c11.050781 0 20 8.949219 20 20zm0 0" fill="#2bbdc4"/><path d="m306 246-90 40v-80zm0 0" fill="#e9eef0"/><path d="m176 396c11.050781 0 20 8.949219 20 20s-8.949219 20-20 20-20-8.949219-20-20 8.949219-20 20-20zm0 0" fill="#495d85"/><path d="m302 40c-5.519531 0-10 4.480469-10 10s4.480469 10 10 10 10-4.480469 10-10-4.480469-10-10-10zm0 0"/><path d="m382 40h-40c-5.523438 0-10 4.476562-10 10s4.476562 10 10 10h40c5.523438 0 10-4.476562 10-10s-4.476562-10-10-10zm0 0"/><path d="m462 40h-40c-5.523438 0-10 4.476562-10 10s4.476562 10 10 10h40c5.523438 0 10-4.476562 10-10s-4.476562-10-10-10zm0 0"/><path d="m482 0h-452c-16.542969 0-30 13.457031-30 30v452c0 16.542969 13.457031 30 30 30h452c16.542969 0 30-13.457031 30-30v-452c0-16.542969-13.457031-30-30-30zm10 482c0 5.515625-4.484375 10-10 10h-452c-5.515625 0-10-4.484375-10-10v-382h472zm0-402h-472v-50c0-5.515625 4.484375-10 10-10h452c5.515625 0 10 4.484375 10 10zm0 0"/><path d="m90 346h332c16.542969 0 30-13.457031 30-30v-140c0-16.542969-13.457031-30-30-30h-332c-16.542969 0-30 13.457031-30 30v140c0 16.542969 13.457031 30 30 30zm-10-170c0-5.515625 4.484375-10 10-10h332c5.515625 0 10 4.484375 10 10v140c0 5.515625-4.484375 10-10 10h-332c-5.515625 0-10-4.484375-10-10zm0 0"/><path d="m70 426h77.71875c4.128906 11.640625 15.246094 20 28.28125 20s24.152344-8.359375 28.28125-20h237.71875c5.523438 0 10-4.476562 10-10s-4.476562-10-10-10h-237.71875c-4.128906-11.640625-15.246094-20-28.28125-20s-24.152344 8.359375-28.28125 20h-77.71875c-5.523438 0-10 4.476562-10 10s4.476562 10 10 10zm106-20c5.515625 0 10 4.484375 10 10s-4.484375 10-10 10-10-4.484375-10-10 4.484375-10 10-10zm0 0"/><path d="m210.550781 294.386719c2.84375 1.847656 6.425781 2.125 9.511719.75l90-40c3.609375-1.605469 5.9375-5.1875 5.9375-9.136719s-2.328125-7.53125-5.9375-9.136719l-90-40c-3.09375-1.375-6.671875-1.09375-9.511719.75-2.835937 1.847657-4.550781 5-4.550781 8.386719v80c0 3.386719 1.714844 6.539062 4.550781 8.386719zm15.449219-73 55.378906 24.613281-55.378906 24.613281zm0 0"/></svg>