<svg viewBox="0 0 512 512" xmlns="http://www.w3.org/2000/svg"><path d="m413.140625 111 .109375-.839844c-17.160156-57.910156-73.769531-100.160156-137.25-100.160156-64.558594 0-122.019531 43.699219-138.089844 103.140625-7.96875-2.050781-16.320312-3.140625-24.910156-3.140625-55.140625 0-103 44.859375-103 100s47.859375 100 103 100h286c55.140625 0 103-44.859375 103-100 0-50.359375-39.921875-92.148438-88.859375-99zm0 0" fill="#e9eef0"/><path d="m336 382-80 120-80-120h50c0-14.953125 0-137.015625 0-152h60v152zm0 0" fill="#adf3ff"/><path d="m299 180c5.519531 0 10-4.480469 10-10s-4.480469-10-10-10-10 4.480469-10 10 4.480469 10 10 10zm0 0"/><path d="m113 320h103v52h-40c-3.6875 0-7.078125 2.03125-8.816406 5.28125-1.742188 3.25-1.550782 7.195312.496094 10.265625l80 120c1.855468 2.78125 4.976562 4.453125 8.320312 4.453125s6.464844-1.671875 8.320312-4.453125l80-120c2.046876-3.066406 2.238282-7.015625.496094-10.265625-1.738281-3.25-5.128906-5.28125-8.816406-5.28125h-40v-52h103c59.554688 0 113-48.273438 113-110 0-52.542969-39.492188-97.375-90.773438-107.734375-20.414062-60.242187-79.976562-102.265625-145.226562-102.265625-64.832031 0-124.226562 41.492188-144.957031 101.492188-5.945313-.984376-11.984375-1.492188-18.042969-1.492188-59.554688 0-113 48.273438-113 110 0 61.730469 53.445312 110 113 110zm204.316406 72-61.316406 91.972656-61.316406-91.972656h31.316406c5.523438 0 10-4.476562 10-10v-142h40v142c0 5.523438 4.476562 10 10 10zm-204.316406-272c24.410156 0 47.03125 9.8125 63.609375 26.390625 3.90625 3.90625 10.238281 3.90625 14.144531 0 3.902344-3.90625 3.902344-10.238281 0-14.144531-11.445312-11.441406-25.226562-20.191406-40.300781-25.671875 18.183594-50.6875 69.453125-86.574219 125.546875-86.574219 53.226562 0 102.8125 32.9375 122.960938 80-29.316407.011719-56.914063 11.460938-77.710938 32.246094-3.90625 3.902344-3.90625 10.234375-.003906 14.140625 3.90625 3.90625 10.238281 3.910156 14.144531.003906 20.851563-20.839844 49.136719-29.363281 76.363281-25.488281 45.746094 6.40625 80.246094 44.707031 80.246094 89.097656 0 48.785156-42.589844 90-93 90h-103v-70c0-5.523438-4.476562-10-10-10h-60c-5.523438 0-10 4.476562-10 10v70h-103c-50.410156 0-93-41.214844-93-90s42.589844-90 93-90zm0 0"/></svg>