<svg viewBox="-22 0 512 512" xmlns="http://www.w3.org/2000/svg"><path d="m254.023438 279.730469-232.582032.078125c-10.519531 69.230468-21.058594 106.769531 4 152.851562 22.5625 41.480469 64.390625 69.339844 112.25 69.339844s89.691406-27.859375 112.25-69.339844c24.722656-45.429687 14.769532-82.238281 4.082032-152.929687zm0 0" fill="#2bbdc4"/><path d="m137.691406 342c-44.320312 0-84.890625-32.878906-116.25-62.191406 2.191406-14.4375 4.382813-30.25 6.25-47.808594 5.679688-51.222656 48.988282-90 100.550782-90h18.898437c51.550781 0 94.863281 38.761719 100.550781 90 1.949219 17.550781 4.152344 33.339844 6.332032 47.730469-31.371094 29.328125-71.980469 62.269531-116.332032 62.269531zm0 0" fill="#ffd86e"/><path d="m157.691406 212v40c0 11.050781-8.949218 20-20 20-11.050781 0-20-8.949219-20-20v-40c0-11.050781 8.949219-20 20-20 11.039063 0 20 8.960938 20 20zm0 0" fill="#495d85"/><path d="m227.691406 372c5.519532 0 10-4.480469 10-10s-4.480468-10-10-10c-5.519531 0-10 4.480469-10 10s4.480469 10 10 10zm0 0"/><path d="m237.691406 0c-60.652344 0-110 49.347656-110 110v22.007812c-56.425781.277344-103.71875 42.773438-109.941406 98.933594-10.859375 101.933594-33.253906 147.363282-1.09375 206.496094 24.71875 45.449219 70.316406 74.5625 121.035156 74.5625 50.816406 0 96.367188-29.203125 121.035156-74.558594 31.640626-58.152344 10.242188-104.5-1.09375-206.542968-6.242187-56.199219-53.457031-98.617188-109.941406-98.890626v-22.007812c0-49.625 40.375-90 90-90 49.730469 0 90 40.234375 90 90v146c0 38.597656 31.402344 70 70 70 38.707032 0 70-31.324219 70-70v-246c0-5.523438-4.476562-10-10-10-5.523437 0-10 4.476562-10 10v246c0 27.648438-22.371094 50-50 50-27.570312 0-50-22.429688-50-50v-146c0-60.78125-49.175781-110-110-110zm-100 202c5.523438 0 10 4.476562 10 10v40c0 5.515625-4.484375 10-10 10-5.511718 0-10-4.484375-10-10v-40c0-5.515625 4.488282-10 10-10zm-100.058594 31.101562c5.089844-45.949218 43.796876-80.8125 90.058594-81.089843v29.988281c0 .570312.058594 1.125.152344 1.667969-11.71875 4.085937-20.152344 15.238281-20.152344 28.332031v40c0 13.035156 8.363282 24.152344 20 28.28125v51.09375c-34.929687-4.195312-67.558594-29.519531-95.578125-55.308594 2.285157-15.472656 4.058594-29.269531 5.519531-42.964844zm203.523438 194.78125c-21.507812 39.550782-61.152344 64.117188-103.464844 64.117188-42.308594 0-81.953125-24.566406-103.464844-64.117188-21.617187-39.75-14.398437-74.457031-5.777343-128.21875 31.441406 27.554688 68.144531 52.335938 109.242187 52.335938 41.109375 0 77.832032-24.808594 109.300782-52.390625 9.039062 57.074219 15.25 89.527344-5.835938 128.273437zm-3.402344-194.777343c1.535156 13.800781 3.332032 27.558593 5.597656 42.878906-28.046874 25.828125-60.707031 51.1875-95.660156 55.390625v-51.09375c11.640625-4.128906 20-15.246094 20-28.28125v-40c0-13.203125-8.5-24.304688-20.148437-28.34375.089843-.539062.148437-1.089844.148437-1.65625v-29.988281c46.277344.277343 84.949219 35.039062 90.0625 81.09375zm0 0"/><path d="m160.121094 469.25c26.695312-6.683594 49.238281-24.765625 63.476562-50.925781 2.542969-4.675781 4.570313-9.097657 6.203125-13.515625 1.917969-5.183594-.730469-10.933594-5.910156-12.847656-5.183594-1.914063-10.933594.730468-12.847656 5.910156-1.296875 3.515625-2.941407 7.082031-5.011719 10.898437-11.53125 21.183594-29.5625 35.769531-50.765625 41.078125-5.359375 1.34375-8.617187 6.773438-7.273437 12.128906 1.34375 5.375 6.789062 8.613282 12.128906 7.273438zm0 0"/></svg>