<svg viewBox="0 0 512 512" xmlns="http://www.w3.org/2000/svg"><path d="m502 462v40h-40c0-13.988281 0-26.011719 0-40zm0 0" fill="#adf3ff"/><path d="m502 236v40c-13.988281 0-26.011719 0-40 0v-40zm0 0" fill="#adf3ff"/><path d="m502 10v40c-13.988281 0-26.011719 0-40 0 0-13.988281 0-26.011719 0-40zm0 0" fill="#adf3ff"/><path d="m422 176v40c0-22.089844-17.910156-40-40-40h-86v186c0 22.089844 17.910156 40 40 40h-160c22.089844 0 40-17.910156 40-40v-186h-86c-22.089844 0-40 17.910156-40 40v-106h332zm0 0" fill="#2bbdc4"/><g fill="#adf3ff"><path d="m276 502h-40c0-13.988281 0-26.011719 0-40h40zm0 0"/><path d="m276 50h-40c0-13.988281 0-26.011719 0-40h40zm0 0"/><path d="m50 502h-40v-40h40zm0 0"/><path d="m50 236v40c-13.988281 0-26.011719 0-40 0v-40zm0 0"/><path d="m50 50c-13.988281 0-26.011719 0-40 0v-40h40zm0 0"/></g><path d="m263.070312 223.070312c3.910157-3.898437 3.910157-10.242187 0-14.140624-3.898437-3.910157-10.242187-3.910157-14.140624 0-3.910157 3.898437-3.910157 10.242187 0 14.140624 3.898437 3.910157 10.242187 3.910157 14.140624 0zm0 0"/><path d="m502 0h-40c-5.523438 0-10 4.476562-10 10v10h-166v-10c0-5.523438-4.476562-10-10-10h-40c-5.523438 0-10 4.476562-10 10v10h-166v-10c0-5.523438-4.476562-10-10-10h-40c-5.523438 0-10 4.476562-10 10v40c0 5.523438 4.476562 10 10 10h10v166h-10c-5.523438 0-10 4.476562-10 10v40c0 5.523438 4.476562 10 10 10h10v166h-10c-5.523438 0-10 4.476562-10 10v40c0 5.523438 4.476562 10 10 10h40c5.523438 0 10-4.476562 10-10v-10h166v10c0 5.523438 4.476562 10 10 10h40c5.523438 0 10-4.476562 10-10v-10h166v10c0 5.523438 4.476562 10 10 10h40c5.523438 0 10-4.476562 10-10v-40c0-5.523438-4.476562-10-10-10h-10v-166h10c5.523438 0 10-4.476562 10-10v-40c0-5.523438-4.476562-10-10-10h-10v-166h10c5.523438 0 10-4.476562 10-10v-40c0-5.523438-4.476562-10-10-10zm-256 20h20v20h-20zm-226 0h20v20h-20zm0 226h20v20h-20zm20 246h-20v-20h20zm226 0h-20v-20h20zm186-30v10h-166v-10c0-5.523438-4.476562-10-10-10h-40c-5.523438 0-10 4.476562-10 10v10h-166v-10c0-5.523438-4.476562-10-10-10h-10v-166h10c5.523438 0 10-4.476562 10-10v-40c0-5.523438-4.476562-10-10-10h-10v-166h10c5.523438 0 10-4.476562 10-10v-10h166v10c0 5.523438 4.476562 10 10 10h40c5.523438 0 10-4.476562 10-10v-10h166v10c0 5.523438 4.476562 10 10 10h10v166h-10c-5.523438 0-10 4.476562-10 10v40c0 5.523438 4.476562 10 10 10h10v166h-10c-5.523438 0-10 4.476562-10 10zm40 30h-20v-20h20zm0-226h-20v-20h20zm0-226h-20v-20h20zm0 0"/><path d="m256 246c-5.523438 0-10 4.476562-10 10v86c0 5.523438 4.476562 10 10 10s10-4.476562 10-10v-86c0-5.523438-4.476562-10-10-10zm0 0"/><path d="m422 100h-332c-5.523438 0-10 4.476562-10 10v106c0 5.523438 4.476562 10 10 10s10-4.476562 10-10c0-16.542969 13.457031-30 30-30h76v176c0 16.542969-13.457031 30-30 30-5.523438 0-10 4.476562-10 10s4.476562 10 10 10h160c5.523438 0 10-4.476562 10-10s-4.476562-10-10-10c-16.542969 0-30-13.457031-30-30v-176h76c16.542969 0 30 13.457031 30 30 0 5.523438 4.476562 10 10 10s10-4.476562 10-10v-106c0-5.523438-4.476562-10-10-10zm-10 76.023438c-8.363281-6.289063-18.753906-10.023438-30-10.023438h-86c-5.523438 0-10 4.476562-10 10v186c0 11.246094 3.734375 21.636719 10.023438 30h-80.046876c6.289063-8.363281 10.023438-18.753906 10.023438-30v-186c0-5.523438-4.476562-10-10-10h-86c-11.246094 0-21.640625 3.734375-30 10.023438v-56.023438h312zm0 0"/></svg>