<svg viewBox="0 0 512 512" xmlns="http://www.w3.org/2000/svg"><path d="m249 362h-.011719l-159.089843 139.300781.101562.699219h412v-140c-11.910156 0-241.175781 0-253 0zm0 0" fill="#2bbdc4"/><path d="m320.421875 92.589844-170.421875 170.421875-20.5 218.488281 289.910156-289.921875zm0 0" fill="#fed2a4"/><path d="m150 322v110c0 38.660156-31.335938 70-70 70-38.660156 0-70-31.339844-70-70v-110zm0 0" fill="#e9eef0"/><path d="m10 10v312h140c0-29.570312 0-273.605469 0-312zm0 0" fill="#ffd86e"/><path d="m110 432c0 16.570312-13.429688 30-30 30s-30-13.429688-30-30 13.429688-30 30-30 30 13.429688 30 30zm0 0" fill="#495d85"/><path d="m396 412c5.519531 0 10-4.480469 10-10s-4.480469-10-10-10-10 4.480469-10 10 4.480469 10 10 10zm0 0"/><path d="m50 100c-5.519531 0-10 4.480469-10 10s4.480469 10 10 10 10-4.480469 10-10-4.480469-10-10-10zm0 0"/><path d="m80 512h422c5.523438 0 10-4.476562 10-10v-140c0-5.523438-4.476562-10-10-10h-228.859375l153.339844-153.347656c3.90625-3.90625 3.90625-10.238282 0-14.144532l-98.988281-98.988281c-3.90625-3.90625-10.238282-3.90625-14.144532 0l-153.347656 153.347657v-228.867188c0-5.523438-4.476562-10-10-10h-140c-5.523438 0-10 4.476562-10 10v422c0 44.113281 35.886719 80 80 80zm220-140h192v120h-86v-50c0-5.523438-4.476562-10-10-10s-10 4.476562-10 10v50h-86zm-20 0v120h-80v-66.867188l53.132812-53.132812zm-120 60v-164.847656l160.421875-160.421875 84.847656 84.847656c-263.878906 263.882813-231.027343 231.039063-245.441406 245.453125.101563-1.667969.171875-3.34375.171875-5.03125zm20 13.144531v46.855469h-47.101562c1.25-1.101562 2.472656-2.234375 3.664062-3.417969 0-.003906.003906-.007812.007812-.011719zm-160-425.144531h120v80h-50c-5.523438 0-10 4.476562-10 10s4.476562 10 10 10h50v92h-120zm0 212h120v80h-120zm0 100h120v100c0 16.019531-6.242188 31.089844-17.566406 42.425781-11.699219 11.6875-26.90625 17.574219-42.433594 17.574219-33.085938 0-60-26.914062-60-60zm0 0"/><path d="m80 472c22.054688 0 40-17.945312 40-40s-17.945312-40-40-40-40 17.945312-40 40 17.945312 40 40 40zm0-60c11.027344 0 20 8.972656 20 20s-8.972656 20-20 20-20-8.972656-20-20 8.972656-20 20-20zm0 0"/></svg>