<svg viewBox="0 0 512 511" xmlns="http://www.w3.org/2000/svg"><path d="m502 322.464844v180h-123v-180zm0 0" fill="#2bbdc4"/><path d="m430.699219 101.441406c-2 1.433594-47.710938 9.691406-78.75 62.183594l4.691406 4.6875c9.769531 9.769531 9.769531 25.601562 0 35.359375-9.761719 9.761719-25.589844 9.761719-35.351563 0-11.164062-11.164063-38.433593-38.433594-49.5-49.5-9.757812-9.757813-9.757812-25.589844 0-35.347656 9.761719-9.769531 25.589844-9.769531 35.359376 0l4.691406 4.6875c52.558594-31.089844 60.75-76.75 62.179687-78.75 10.550781-31.65625 51.570313-47.207031 77.730469-21.046875 26.097656 26.230468 10.628906 67.171875-21.050781 77.726562zm0 0" fill="#2bbdc4"/><path d="m256 322.464844h123v180h-123zm0 0" fill="#adf3ff"/><path d="m195.429688 322.464844-62.429688 48.277344v131.722656h123v-180zm0 0" fill="#ffd86e"/><path d="m275.328125 157.714844-152.539063 152.527344c-3.488281 3.5-5.988281 7.699218-7.410156 12.222656h-105.378906v180h123v-131.722656l9.339844-9.328126c8.21875.449219 16.601562-2.460937 22.878906-8.742187 5.742188-5.738281 145.15625-145.164063 152.53125-152.539063zm0 0" fill="#e9eef0"/><path d="m462 352.464844c-5.519531 0-10 4.476562-10 10 0 5.519531 4.480469 10 10 10s10-4.480469 10-10c0-5.523438-4.480469-10-10-10zm0 0"/><path d="m10 512.464844h492c5.523438 0 10-4.480469 10-10v-180c0-5.523438-4.476562-10-10-10h-282.429688l98.4375-98.445313c13.75 10.296875 33.296876 9.128907 45.699219-3.269531 13.367188-13.355469 13.6875-34.800781.929688-48.546875 27.222656-41.023437 62.128906-48.121094 69.875-51.492187 38.082031-13.179688 55.6875-62.527344 24.308593-94.070313-31.019531-31.019531-80.707031-14.28125-94.066406 24.3125-2.945312 6.765625-9.898437 42.273437-51.492187 69.875-13.6875-12.703125-35.136719-12.492187-48.542969.925781-12.5625 12.5625-13.496094 32.109375-3.28125 45.707032l-145.726562 145.722656c-2.738282 2.746094-5.058594 5.886718-6.894532 9.28125h-98.816406c-5.523438 0-10 4.476562-10 10v180c0 5.519531 4.476562 10 10 10zm379-180h103v160h-103zm-123 0h103v160h-103zm-20 0v160h-103v-117.578125l3.515625-3.507813c9.667969-.613281 18.867187-4.722656 25.777344-11.632812l27.277343-27.28125zm32.863281-206.574219c5.859375-5.863281 15.34375-5.867187 21.214844.003906l4.691406 4.691407c3.226563 3.226562 8.234375 3.859374 12.160157 1.535156 35.5-21 54.316406-47.46875 66.578124-84.195313 8.214844-24.664062 40.320313-37.992187 61.152344-17.160156 20.699219 20.796875 7.730469 52.910156-17.121094 61.191406-37.089843 12.378907-63.417968 31.4375-84.195312 66.578125-2.324219 3.925782-1.691406 8.933594 1.535156 12.160156l4.6875 4.6875c5.867188 5.867188 5.875 15.351563 0 21.21875-5.847656 5.847657-15.359375 5.847657-21.207031 0-6.6875-6.6875-37.714844-37.714843-49.5-49.5-5.839844-5.84375-5.875-15.332031.003906-21.210937zm-157.742187 214.300781c2.011718-2.007812 3.070312-4.777344 2.914062-7.617187-.320312-5.867188 1.90625-11.328125 5.824219-15.261719l145.46875-145.457031 28.28125 28.277343-145.460937 145.46875c-4.011719 4.015626-9.578126 6.148438-15.261719 5.828126-2.839844-.152344-5.605469.902343-7.613281 2.910156-2.90625 2.902344 4.761718-4.765625-33.699219 33.6875-3.890625 3.894531-10.203125 3.929687-14.136719-.011719-3.90625-3.898437-3.917969-10.214844.003906-14.132813zm-101.121094-7.726562h80.570312l-27.265624 27.273437c-11.75 11.734375-11.730469 30.71875-.011719 42.421875 11.714843 11.730469 30.699219 11.746094 42.425781.003906l7.28125-7.277343v97.578125h-103zm0 0"/><path d="m462 392.464844c-5.523438 0-10 4.476562-10 10v60c0 5.519531 4.476562 10 10 10s10-4.480469 10-10v-60c0-5.523438-4.476562-10-10-10zm0 0"/></svg>