<svg viewBox="0 0 512 512" xmlns="http://www.w3.org/2000/svg"><path d="m482 10h-452c-11.050781 0-20 8.949219-20 20v292h492v-292c0-11.050781-8.949219-20-20-20zm0 0" fill="#495d85"/><path d="m459 50v272h-406v-272zm0 0" fill="#adf3ff"/><g fill="#e9eef0"><path d="m336 116h80v100h-80zm0 0"/><path d="m10 322v60c0 11.050781 8.949219 20 20 20h186v20c0 22.089844-17.910156 40-40 40-11.039062 0-21.039062 4.480469-28.28125 11.71875-7.238281 7.242188-11.71875 17.242188-11.71875 28.28125h240c0-11.039062-4.480469-21.039062-11.71875-28.28125-7.242188-7.238281-17.242188-11.71875-28.28125-11.71875s-21.039062-4.480469-28.28125-11.71875c-7.238281-7.242188-11.71875-17.242188-11.71875-28.28125v-20h186c11.050781 0 20-8.949219 20-20v-60c-22.222656 0-454.414062 0-492 0zm0 0"/><path d="m216 116h80v100h-80zm0 0"/><path d="m96 116h80v100h-80zm0 0"/></g><path d="m296 372c5.519531 0 10-4.480469 10-10s-4.480469-10-10-10-10 4.480469-10 10 4.480469 10 10 10zm0 0"/><path d="m482 0h-452c-16.542969 0-30 13.457031-30 30v352c0 16.542969 13.457031 30 30 30h176v10c0 16.542969-13.457031 30-30 30-27.625 0-50 22.375-50 50 0 5.523438 4.476562 10 10 10h240c5.523438 0 10-4.476562 10-10 0-27.621094-22.375-50-50-50-8.007812 0-15.539062-3.121094-21.207031-8.789062-5.671875-5.671876-8.792969-13.203126-8.792969-21.210938v-10h176c16.542969 0 30-13.457031 30-30v-352c0-16.542969-13.457031-30-30-30zm-146 472c13.316406 0 24.277344 8.609375 28.296875 20h-216.59375c4.015625-11.382812 14.976563-20 28.296875-20zm-39.996094-20h-80.03125c6.292969-8.363281 10.027344-18.753906 10.027344-30v-10h60v10c0 10.964844 3.515625 21.390625 10.003906 30zm195.996094-70c0 5.515625-4.484375 10-10 10h-452c-5.515625 0-10-4.484375-10-10v-50h472zm-429-70v-252h386v252zm429 0h-23v-262c0-5.523438-4.476562-10-10-10h-406c-5.523438 0-10 4.476562-10 10v262h-23v-282c0-5.515625 4.484375-10 10-10h452c5.515625 0 10 4.484375 10 10zm0 0"/><path d="m176 106h-80c-5.523438 0-10 4.476562-10 10v100c0 5.523438 4.476562 10 10 10h80c5.523438 0 10-4.476562 10-10v-100c0-5.523438-4.476562-10-10-10zm-10 100h-60v-80h60zm0 0"/><path d="m296 106h-80c-5.523438 0-10 4.476562-10 10v100c0 5.523438 4.476562 10 10 10h80c5.523438 0 10-4.476562 10-10v-100c0-5.523438-4.476562-10-10-10zm-10 100h-60v-80h60zm0 0"/><path d="m416 106h-80c-5.523438 0-10 4.476562-10 10v100c0 5.523438 4.476562 10 10 10h80c5.523438 0 10-4.476562 10-10v-100c0-5.523438-4.476562-10-10-10zm-10 100h-60v-80h60zm0 0"/><path d="m176 246h-80c-5.523438 0-10 4.476562-10 10s4.476562 10 10 10h80c5.523438 0 10-4.476562 10-10s-4.476562-10-10-10zm0 0"/><path d="m296 246h-80c-5.523438 0-10 4.476562-10 10s4.476562 10 10 10h80c5.523438 0 10-4.476562 10-10s-4.476562-10-10-10zm0 0"/><path d="m416 246h-80c-5.523438 0-10 4.476562-10 10s4.476562 10 10 10h80c5.523438 0 10-4.476562 10-10s-4.476562-10-10-10zm0 0"/><path d="m216 372h40c5.523438 0 10-4.476562 10-10s-4.476562-10-10-10h-40c-5.523438 0-10 4.476562-10 10s4.476562 10 10 10zm0 0"/></svg>