<svg viewBox="0 0 512.00011 512" xmlns="http://www.w3.org/2000/svg"><path d="m407.171875 28.289062 76.542969 76.542969c-14.28125 47.585938-39.496094 104.359375-83.773438 148.636719-18.230468 18.226562-37.636718 35.246094-57.195312 50.363281-26.199219 20.269531-52.65625 37.136719-76.84375 48.9375-8.71875-23.726562-22.605469-45.976562-41.644532-65.023437-19.050781-19.039063-41.296874-32.929688-65.023437-41.648438 11.796875-24.1875 28.667969-50.644531 48.933594-76.84375 15.121093-19.554687 32.136719-38.964844 50.367187-57.191406 44.273438-44.277344 101.050782-69.496094 148.636719-83.773438zm0 0" fill="#e9eef0"/><path d="m156.09375 304.433594 53.183594 53.183594c-3.429688 5.621093-7.707032 11.101562-12.796875 16.191406-23.429688 23.425781-84.851563 28.277344-84.851563 28.277344s4.859375-61.414063 28.285156-84.84375c5.089844-5.089844 10.558594-9.371094 16.179688-12.808594zm0 0" fill="#ffd86e"/><g fill="#2bbdc4"><path d="m399.941406 112.0625c15.617188 15.617188 15.617188 40.933594 0 56.554688-15.617187 15.628906-40.9375 15.628906-56.554687 0-15.628907-15.621094-15.628907-40.9375 0-56.554688 15.617187-15.621094 40.9375-15.621094 56.554687 0zm0 0"/><path d="m502 10s-2.316406 41.6875-18.285156 94.832031l-76.542969-76.542969c53.144531-15.96875 94.828125-18.289062 94.828125-18.289062zm0 0"/><path d="m343.234375 304.472656c13.160156 58.246094-2.929687 121.757813-48.273437 167.105469-12.269532 12.269531-25.867188 22.386719-40.328126 30.378906 25.367188-45.949219 29.128907-100.644531 11.269532-149.1875 24.1875-11.800781 50.644531-28.667969 76.84375-48.9375zm0 0"/><path d="m207.527344 168.765625.640625.488281c-20.265625 26.199219-37.136719 52.65625-48.933594 76.84375-48.546875-17.855468-103.242187-14.097656-149.1875 11.269532 7.988281-14.457032 18.109375-28.058594 30.378906-40.324219 45.34375-45.347657 108.859375-61.4375 167.101563-48.277344zm0 0"/><path d="m150.914062 299.253906c-5.058593-5.058594-7.28125-12.46875-5.21875-19.316406 3.148438-10.53125 7.726563-21.910156 13.539063-33.839844 23.726563 8.71875 45.972656 22.609375 65.023437 41.648438 19.039063 19.046875 32.925782 41.296875 41.644532 65.023437-11.929688 5.808594-23.308594 10.386719-33.835938 13.539063-6.847656 2.058594-14.257812-.160156-19.316406-5.21875-13.617188-13.617188-46.925781-46.925782-61.835938-61.835938zm0 0"/></g><path d="m279.753906 133.269531c-3.910156 3.898438-3.910156 10.238281 0 14.136719 3.898438 3.910156 10.226563 3.910156 14.136719 0 3.898437-3.898438 3.898437-10.238281 0-14.136719-3.910156-3.910156-10.238281-3.910156-14.136719 0zm0 0"/><path d="m266.136719 162.078125c-4.191407-3.597656-10.503907-3.117187-14.101563 1.074219-11.085937 12.917968-31.449218 37.292968-43.296875 55.417968-3.023437 4.621094-1.726562 10.820313 2.898438 13.839844 4.640625 3.03125 10.828125 1.707032 13.839843-2.898437 11.644532-17.816407 33.0625-43.234375 41.734376-53.332031 3.597656-4.191407 3.113281-10.503907-1.074219-14.101563zm0 0"/><path d="m336.316406 104.988281c-19.542968 19.53125-19.554687 51.15625-.003906 70.695313 19.539062 19.550781 51.160156 19.554687 70.699219 0 19.535156-19.535156 19.539062-51.152344 0-70.691406-19.535157-19.535157-51.15625-19.542969-70.695313-.003907zm56.554688 56.558594c-.003906 0-.003906 0-.003906 0-11.71875 11.726563-30.679688 11.738281-42.414063-.003906-11.726563-11.71875-11.734375-30.683594.003906-42.410157 11.722657-11.722656 30.6875-11.722656 42.414063 0 11.71875 11.71875 11.722656 30.6875 0 42.414063zm0 0"/><path d="m17.117188 509.027344 62.503906-62.507813c3.90625-3.902343 3.90625-10.234375 0-14.140625-3.90625-3.902344-10.234375-3.902344-14.140625 0l-62.503907 62.503906c-3.90625 3.90625-3.90625 10.238282 0 14.144532 3.90625 3.902344 10.234376 3.902344 14.140626 0zm0 0"/><path d="m117.109375 509.027344 62.503906-62.507813c3.902344-3.902343 3.902344-10.234375 0-14.140625-3.90625-3.902344-10.234375-3.902344-14.144531 0l-62.503906 62.503906c-3.902344 3.90625-3.902344 10.238282 0 14.144532 3.910156 3.902344 10.238281 3.902344 14.144531 0zm0 0"/><path d="m2.976562 409.035156c3.90625 3.902344 10.234376 3.902344 14.140626 0l62.503906-62.503906c3.90625-3.90625 3.90625-10.238281 0-14.140625-3.90625-3.90625-10.234375-3.90625-14.140625 0l-62.503907 62.503906c-3.90625 3.902344-3.90625 10.234375 0 14.140625zm0 0"/><path d="m511.984375 10.554688c.160156-2.839844-.902344-5.613282-2.914063-7.625-2.011718-2.011719-4.789062-3.082032-7.625-2.914063-50.820312 2.835937-172.195312 27.1875-249.984374 104.976563-16.703126 16.703124-32.507813 34.480468-47.078126 52.898437-62.367187-12.261719-125.9375 6.988281-171.027343 52.082031-12.667969 12.667969-23.453125 26.984375-32.0625 42.558594-4.847657 8.773438 4.859375 18.414062 13.585937 13.589844 39.976563-22.070313 86.988282-27.011719 130.578125-14.054688-3.851562 8.765625-6.988281 17.140625-9.335937 24.988282-2.65625 8.820312-.800782 18.382812 4.796875 25.878906-2.796875 2.246094-5.496094 4.660156-8.074219 7.238281-25.738281 25.738281-30.972656 88.464844-31.183594 91.125-.460937 5.828125 4.152344 10.789063 9.964844 10.789063.261719 0 .527344-.011719.789062-.03125 2.65625-.210938 65.394532-5.4375 91.136719-31.175782 2.683594-2.683594 5.191407-5.5 7.515625-8.417968 7.273438 4.585937 15.941406 5.8125 23.867188 3.429687 7.855468-2.351563 16.234375-5.492187 25.003906-9.34375 12.957031 43.585937 8.015625 90.601563-14.054688 130.578125-4.886718 8.847656 4.949219 18.355469 13.589844 13.582031 15.574219-8.605469 29.890625-19.390625 42.558594-32.058593 45.089844-45.089844 64.339844-108.664063 52.078125-171.027344 18.421875-14.574219 36.199219-30.378906 52.902344-47.082032 38.292969-38.292968 67.304687-89.667968 86.238281-152.699218 9.84375-31.253906 17.457031-74.378906 18.734375-97.285156zm-473.921875 223.78125c2.996094-3.523438 6.144531-6.9375 9.433594-10.222657 37.972656-37.976562 90.605468-55.453125 143.191406-48.230469-14.398438 19.726563-26.796875 39.429688-36.453125 57.953126-38.09375-12.027344-78.703125-11.71875-116.171875.5zm151.347656 132.402343c-13.75 13.75-46.015625 21-66.402344 23.960938 2.953126-20.371094 10.195313-52.605469 23.976563-66.386719 2.511719-2.511719 5.160156-4.824219 7.914063-6.933594l41.441406 41.441406c-2.105469 2.753907-4.417969 5.402344-6.929688 7.917969zm39.777344-10.003906c-3.109375.933594-6.785156-.132813-9.367188-2.714844-14.28125-14.28125-55.003906-55.003906-61.835937-61.835937-2.585937-2.582032-3.648437-6.261719-2.710937-9.382813 2.226562-7.445312 5.253906-15.464843 9.027343-23.925781 19.714844 8.472656 37.46875 20.53125 52.882813 35.9375 15.410156 15.417969 27.46875 33.171875 35.941406 52.886719-8.460938 3.773437-16.484375 6.804687-23.9375 9.035156zm58.703125 107.773437c-3.289063 3.289063-6.699219 6.433594-10.226563 9.429688 12.222657-37.46875 12.53125-78.078125.503907-116.171875 18.519531-9.65625 38.222656-22.054687 57.949219-36.453125 7.226562 52.589844-10.253907 105.21875-48.226563 143.195312zm104.980469-218.109374c-34.5 34.496093-78.519532 69.542968-121.773438 92.496093-9.449218-21.679687-22.789062-41.230469-39.773437-58.222656-16.992188-16.980469-36.539063-30.320313-58.21875-39.765625 22.953125-43.253906 58-87.277344 92.496093-121.773438 34.808594-34.808593 81.464844-61.542968 138.75-79.519531l68.035157 68.035157c-17.972657 57.285156-44.710938 103.941406-79.515625 138.75zm85.832031-160.71875-52.382813-52.382813c27.9375-7.300781 51.371094-10.714844 64.605469-12.222656-1.507812 13.234375-4.917969 36.667969-12.222656 64.605469zm0 0"/></svg>