<svg viewBox="0 0 512 512" xmlns="http://www.w3.org/2000/svg"><g fill="#495d85"><path d="m209.839844 150c-11.46875 12.214844-175.195313 186.601562-182.53125 194.410156-11.136719-27.628906-17.308594-57.5-17.308594-88.410156 0-37.589844 9.121094-73.648438 25.21875-106.011719l.03125.011719zm0 0"/><path d="m344.410156 484.691406c-27.628906 11.136719-57.5 17.308594-88.410156 17.308594-37.101562 0-72.710938-8.890625-104.75-24.601562v-173.988282c11.441406 10.738282 182.210938 171.003906 193.160156 181.28125zm0 0"/><path d="m485.398438 169.378906c10.703124 27.140625 16.601562 56.382813 16.601562 86.621094 0 37.589844-9.121094 73.640625-25.21875 106h-172.121094c10.648438-11.351562 170.46875-181.671875 180.738282-192.621094zm0 0"/><path d="m256 10c-30.238281 0-59.488281 5.910156-86.621094 16.601562.101563.09375 193.179688 181.339844 193.871094 181.988282v-172.75c-32.691406-16.480469-69.179688-25.839844-107.25-25.839844zm0 0"/></g><path d="m151.25 477.398438c-55.738281-27.328126-100.679688-75.289063-123.941406-132.988282l123.941406-132.011718zm0 0" fill="#adf3ff"/><path d="m476.78125 362c-27.421875 55.148438-75.089844 99.601562-132.371094 122.691406l-130.730468-122.691406zm0 0" fill="#adf3ff"/><path d="m363.25 35.851562v263.707032l122.148438-130.179688c-22.699219-57.628906-67-105.71875-122.148438-133.527344zm0 0" fill="#adf3ff"/><path d="m169.378906 26.601562 131.449219 123.398438c-9.421875 0-252.222656 0-265.578125 0l-.03125-.011719c27.710938-55.71875 76.089844-100.507812 134.160156-123.386719zm0 0" fill="#adf3ff"/><path d="m363.25 120c5.519531 0 10-4.480469 10-10s-4.480469-10-10-10-10 4.480469-10 10 4.480469 10 10 10zm0 0"/><path d="m256 0c-138.652344 0-256 118.515625-256 256 0 138.304688 118.222656 256 256 256 31.464844 0 62.46875-6.066406 92.148438-18.035156.035156-.015625.066406-.027344.101562-.042969.039062-.015625.078125-.03125.117188-.046875 94.28125-38.113281 163.632812-131.976562 163.632812-237.875 0-138.480469-118.25-256-256-256zm0 20c33.582031 0 66.265625 7.4375 97.25 22.097656v27.902344c0 5.523438 4.476562 10 10 10s10-4.476562 10-10c0-4.441406 0-13.027344 0-17.257812 44.445312 26.441406 80.34375 67.25 100.453125 114.488281l-100.453125 107.058593c0-17.742187 0-108.578124 0-124.289062 0-5.523438-4.476562-10-10-10s-10 4.476562-10 10v35.488281l-165.070312-154.957031c22.097656-6.992188 44.84375-10.53125 67.820312-10.53125zm97.25 192.917969v82.683593l-52.917969 56.398438h-82.695312l-56.386719-52.921875v-82.71875l52.917969-56.359375h82.710937zm-186.023438-174.621094 108.34375 101.703125h-223.574218c26.417968-45.027344 67.503906-81.382812 115.230468-101.703125zm-25.976562 422.429687c-45.023438-26.0625-81.558594-66.777343-102.203125-114.207031l102.203125-108.855469zm-110.105469-135.007812c-7.398437-22.683594-11.144531-46.066406-11.144531-69.71875 0-33.136719 7.234375-65.398438 21.503906-96h145.230469zm224.855469 166.28125c-32.65625 0-64.5-7.039062-94.75-20.929688v-144.5625l164.464844 154.351563c-22.679688 7.394531-46.0625 11.140625-69.714844 11.140625zm90.519531-19.046875-107.570312-100.964844h221.050781c-26.082031 44.4375-66.527344 80.523438-113.480469 100.964844zm123.972657-120.953125h-142.734376c1.707032-1.824219 147.871094-157.5625 153.714844-163.816406 6.992188 22.082031 10.527344 44.828125 10.527344 67.816406 0 33.132812-7.238281 65.394531-21.507812 96zm0 0"/></svg>