<svg viewBox="0 0 512 512" xmlns="http://www.w3.org/2000/svg"><path d="m502 30v452c0 11.050781-8.949219 20-20 20h-452c-11.050781 0-20-8.949219-20-20v-452c0-11.050781 8.949219-20 20-20h452c11.050781 0 20 8.949219 20 20zm0 0" fill="#e9eef0"/><path d="m386 346v-220h-220v-66h-40v66h-66v40h66v220h220v66h40v-66h66v-40zm-40 0h-180v-180h180zm0 0" fill="#495d85"/><path d="m50 326c-5.519531 0-10 4.480469-10 10s4.480469 10 10 10 10-4.480469 10-10-4.480469-10-10-10zm0 0"/><path d="m482 0h-452c-16.542969 0-30 13.457031-30 30v452c0 16.542969 13.457031 30 30 30h452c16.542969 0 30-13.457031 30-30v-452c0-16.542969-13.457031-30-30-30zm10 482c0 5.515625-4.484375 10-10 10h-452c-5.515625 0-10-4.484375-10-10v-452c0-5.515625 4.484375-10 10-10h452c5.515625 0 10 4.484375 10 10zm0 0"/><path d="m452 336h-56v-205.855469l43.070312-43.074219c3.90625-3.902343 3.90625-10.234374 0-14.140624s-10.234374-3.90625-14.140624 0l-43.074219 43.070312h-205.855469v-56c0-5.523438-4.476562-10-10-10h-40c-5.523438 0-10 4.476562-10 10v56h-56c-5.523438 0-10 4.476562-10 10v40c0 5.523438 4.476562 10 10 10h56v210c0 5.523438 4.476562 10 10 10h210v56c0 5.523438 4.476562 10 10 10h40c5.523438 0 10-4.476562 10-10v-56h56c5.523438 0 10-4.476562 10-10v-40c0-5.523438-4.476562-10-10-10zm-336-180h-46v-20h46zm60 20h145.855469l-145.855469 145.855469zm160 200h-200v-306h20v275.996094c-.003906 5.519531 4.507812 10.003906 10 10.003906h170zm0-40h-145.855469l145.855469-145.855469zm5.855469-180h-165.855469v-20h185.855469zm34.144531 286h-20v-271.855469l20-20zm66-66h-46v-20h46zm0 0"/><path d="m50 366c-5.523438 0-10 4.476562-10 10v86c0 5.523438 4.476562 10 10 10s10-4.476562 10-10v-86c0-5.523438-4.476562-10-10-10zm0 0"/></svg>