<svg viewBox="0 0 512 512.001" xmlns="http://www.w3.org/2000/svg"><path d="m299 160c-5.519531 0-10 4.480469-10 10s4.480469 10 10 10 10-4.480469 10-10-4.480469-10-10-10zm0 0"/><path d="m421.226562 102.265625c-20.410156-60.242187-79.976562-102.265625-145.226562-102.265625-64.832031 0-124.222656 41.492188-144.957031 101.492188-5.945313-.984376-11.984375-1.492188-18.042969-1.492188-59.558594 0-113 48.273438-113 110 0 61.730469 53.445312 110 113 110h70.980469l-16.300781 24.453125c-2.046876 3.066406-2.238282 7.015625-.496094 10.265625 1.738281 3.253906 5.128906 5.28125 8.816406 5.28125h40v142c0 5.523438 4.476562 10 10 10h60c5.523438 0 10-4.476562 10-10v-142h40c3.6875 0 7.078125-2.03125 8.816406-5.28125 1.738282-3.25 1.550782-7.199219-.496094-10.265625l-16.300781-24.453125h70.980469c59.558594 0 113-48.273438 113-110 0-52.539062-39.492188-97.375-90.773438-107.734375zm-135.226562 237.734375c-5.523438 0-10 4.476562-10 10v142h-40v-142c0-5.523438-4.476562-10-10-10h-31.3125c9.351562-14.023438 61.3125-91.972656 61.3125-91.972656 6.242188 9.367187 49.886719 74.828125 61.3125 91.972656zm113-40h-84.316406l-50.363282-75.546875c-1.855468-2.78125-4.976562-4.453125-8.320312-4.453125s-6.464844 1.671875-8.320312 4.453125l-50.363282 75.546875h-84.316406c-50.410156 0-93-41.214844-93-90s42.589844-90 93-90c24.410156 0 47.03125 9.8125 63.609375 26.390625 3.90625 3.90625 10.238281 3.90625 14.144531 0s3.902344-10.238281 0-14.144531c-11.445312-11.441406-25.226562-20.191406-40.300781-25.671875 18.183594-50.6875 69.453125-86.574219 125.546875-86.574219 53.226562 0 102.816406 32.9375 122.960938 80-29.316407.011719-56.914063 11.460938-77.710938 32.246094-3.90625 3.902344-3.90625 10.234375-.003906 14.140625 3.90625 3.90625 10.238281 3.910156 14.144531.003906 17.027344-17.019531 39.621094-26.390625 63.609375-26.390625 4.25 0 8.535156.304688 12.753906.902344 45.746094 6.40625 80.246094 44.707031 80.246094 89.097656 0 48.785156-42.589844 90-93 90zm0 0"/></svg>