<svg viewBox="0 0 512 512" xmlns="http://www.w3.org/2000/svg"><path d="m256 340c-5.519531 0-10 4.480469-10 10s4.480469 10 10 10 10-4.480469 10-10-4.480469-10-10-10zm0 0"/><path d="m472 80c22.054688 0 40-17.945312 40-40s-17.945312-40-40-40c-18.605469 0-34.28125 12.765625-38.734375 30h-137.265625v-20c0-5.523438-4.476562-10-10-10h-60c-5.523438 0-10 4.476562-10 10v20h-137.265625c-4.453125-17.234375-20.128906-30-38.734375-30-22.054688 0-40 17.945312-40 40s17.945312 40 40 40c18.605469 0 34.28125-12.777344 38.734375-30.011719h85.007813c-70.886719 31.851563-121.3125 96.625-131.6875 170.011719h-22.054688c-5.523438 0-10 4.476562-10 10v60c0 5.523438 4.476562 10 10 10h60c5.523438 0 10-4.476562 10-10v-60c0-5.523438-4.476562-10-10-10h-17.722656c12.703125-81.636719 79.195312-149.042969 163.722656-165.988281v15.988281c0 5.523438 4.476562 10 10 10h13.078125l-106.476563 193.398438c-1.316406 2.390624-1.597656 5.214843-.78125 7.820312.820313 2.605469 2.667969 4.761719 5.117188 5.96875 23.628906 11.660156 49.0625 36.289062 49.0625 62.8125v36h-10c-5.523438 0-10 4.476562-10 10s4.476562 10 10 10h10v96c0 5.523438 4.476562 10 10 10h120c5.523438 0 10-4.476562 10-10v-96h10c5.523438 0 10-4.476562 10-10s-4.476562-10-10-10h-10v-36c0-26.523438 25.433594-51.152344 49.0625-62.8125 2.449219-1.207031 4.296875-3.363281 5.117188-5.96875.816406-2.605469.535156-5.429688-.78125-7.820312l-106.476563-193.398438h13.078125c5.523438 0 10-4.476562 10-10v-15.988281c84.527344 16.945312 151.019531 84.351562 163.722656 165.988281h-17.722656c-5.523438 0-10 4.476562-10 10v60c0 5.523438 4.476562 10 10 10h60c5.523438 0 10-4.476562 10-10v-60c0-5.523438-4.476562-10-10-10h-22.054688c-10.371093-73.359375-60.773437-138.136719-131.6875-170h85.007813c4.453125 17.234375 20.128906 30 38.734375 30zm0-60c11.027344 0 20 8.972656 20 20s-8.972656 20-20 20-20-8.972656-20-20 8.972656-20 20-20zm-432 40c-11.027344 0-20-8.972656-20-20s8.972656-20 20-20 20 8.972656 20 20-8.972656 20-20 20zm20 180v40h-40v-40zm246 252h-100v-86h100zm51.050781-217.726562c-26.671875 16.089843-51.050781 44.074218-51.050781 75.726562v36h-100v-36c0-31.652344-24.378906-59.636719-51.050781-75.726562l91.050781-165.375v112.820312c-11.640625 4.128906-20 15.246094-20 28.28125s8.359375 24.152344 20 28.28125v31.71875c0 5.523438 4.476562 10 10 10s10-4.476562 10-10v-31.71875c11.640625-4.128906 20-15.246094 20-28.28125s-8.359375-24.152344-20-28.28125v-112.820312zm-101.050781-34.273438c5.515625 0 10 4.484375 10 10s-4.484375 10-10 10-10-4.484375-10-10 4.484375-10 10-10zm20-180h-19.910156c-.019532 0-.039063 0-.054688 0h-.066406c-.023438 0-.042969 0-.0625 0h-19.90625v-40h40zm216 180v40h-40v-40zm0 0"/></svg>