<svg viewBox="0 0 512 512" xmlns="http://www.w3.org/2000/svg"><path d="m170 352c-5.519531 0-10 4.480469-10 10s4.480469 10 10 10 10-4.480469 10-10-4.480469-10-10-10zm0 0"/><path d="m50 312c-5.519531 0-10 4.480469-10 10s4.480469 10 10 10 10-4.480469 10-10-4.480469-10-10-10zm0 0"/><path d="m462 132h-126v-92c0-22.054688-17.945312-40-40-40s-40 17.945312-40 40v92h-206c-27.570312 0-50 22.429688-50 50v280c0 27.570312 22.429688 50 50 50h412c27.570312 0 50-22.429688 50-50v-280c0-27.570312-22.429688-50-50-50zm-186-92c0-11.027344 8.972656-20 20-20s20 8.972656 20 20v10h-40zm0 30h40v212h-40zm38.695312 232c-.242187.632812-.507812 1.253906-.808593 1.859375l-17.886719 35.777344-17.894531-35.796875c-.300781-.597656-.5625-1.210938-.800781-1.839844zm-214.695312-150h156v20h-156zm0 40h156v102.921875c0 6.191406 1.464844 12.382813 4.226562 17.878906l19.59375 39.199219h-69.820312c-5.523438 0-10 4.476562-10 10s4.476562 10 10 10h166c5.523438 0 10-4.476562 10-10s-4.476562-10-10-10h-63.820312l19.585937-39.179688c2.769531-5.515624 4.234375-11.707031 4.234375-17.898437v-102.921875h116v260h-352zm-20 300h-30c-16.542969 0-30-13.457031-30-30v-280c0-16.542969 13.457031-30 30-30h30zm412-30c0 16.542969-13.457031 30-30 30h-362v-20h362c5.523438 0 10-4.476562 10-10v-280c0-5.523438-4.476562-10-10-10h-126v-20h126c16.542969 0 30 13.457031 30 30zm0 0"/><path d="m40 242v40c0 5.523438 4.476562 10 10 10s10-4.476562 10-10v-40c0-5.523438-4.476562-10-10-10s-10 4.476562-10 10zm0 0"/><path d="m50 352c-5.523438 0-10 4.476562-10 10v40c0 5.523438 4.476562 10 10 10s10-4.476562 10-10v-40c0-5.523438-4.476562-10-10-10zm0 0"/></svg>