<svg viewBox="0 -46 512 512" xmlns="http://www.w3.org/2000/svg"><path d="m462 220c-5.519531 0-10 4.480469-10 10s4.480469 10 10 10 10-4.480469 10-10-4.480469-10-10-10zm0 0"/><path d="m442 320c-16.542969 0-30 13.457031-30 30s13.457031 30 30 30 30-13.457031 30-30-13.457031-30-30-30zm0 40c-5.515625 0-10-4.484375-10-10s4.484375-10 10-10 10 4.484375 10 10-4.484375 10-10 10zm0 0"/><path d="m442 0c-35.203125 0-64.40625 26.125-69.273438 60h-342.726562c-16.542969 0-30 13.457031-30 30v300c0 16.542969 13.457031 30 30 30h412c38.597656 0 70-31.402344 70-70v-280c0-38.625-31.246094-70-70-70zm-412 400c-5.515625 0-10-4.484375-10-10v-300c0-5.515625 4.484375-10 10-10h342v270c0 19.570312 8.085938 37.285156 21.078125 50zm412 0c-27.570312 0-50-22.429688-50-50s22.429688-50 50-50 50 22.429688 50 50-22.429688 50-50 50zm50-98.921875c-12.714844-12.992187-30.429688-21.078125-50-21.078125s-37.285156 8.085938-50 21.078125v-231.078125c0-27.570312 22.429688-50 50-50 27.585938 0 50 22.316406 50 50zm0 0"/><path d="m166.480469 200h9.519531c5.523438 0 10-4.476562 10-10s-4.476562-10-10-10h-35.382812c3.417968-5.886719 5.382812-12.71875 5.382812-20 0-22.054688-17.945312-40-40-40s-40 17.945312-40 40 17.945312 40 40 40c7.589844 0 14.6875-2.125 20.738281-5.808594l9.5625 38.234375c1.34375 5.390625 6.804688 8.609375 12.125 7.273438 5.355469-1.339844 8.613281-6.769531 7.273438-12.125l-3.328125-13.320313c33.710937 30.4375 33.683594 68.425782 33.632812 125.660156l-.003906 6.707032c0 5.519531 4.476562 10 10 10s10-4.480469 10-10l.003906-6.6875c.050782-58.847656.085938-103.847656-39.523437-139.933594zm-60.480469-20c-11.027344 0-20-8.972656-20-20s8.972656-20 20-20 20 8.972656 20 20-8.972656 20-20 20zm0 0"/><path d="m323.070312 122.929688c-3.90625-3.90625-10.234374-3.90625-14.140624 0l-22.929688 22.925781-22.929688-22.925781c-3.90625-3.90625-10.234374-3.90625-14.140624 0-3.90625 3.902343-3.90625 10.234374 0 14.140624l22.925781 22.929688-22.925781 22.929688c-3.90625 3.90625-3.90625 10.234374 0 14.140624s10.234374 3.90625 14.140624 0l22.929688-22.925781 22.929688 22.925781c3.90625 3.90625 10.234374 3.90625 14.140624 0 3.90625-3.902343 3.90625-10.234374 0-14.140624l-22.925781-22.929688 22.925781-22.929688c3.90625-3.90625 3.90625-10.234374 0-14.140624zm0 0"/><path d="m323.070312 282.929688c-3.90625-3.90625-10.234374-3.90625-14.140624 0l-22.929688 22.925781-22.929688-22.925781c-3.90625-3.90625-10.234374-3.90625-14.140624 0-3.90625 3.902343-3.90625 10.234374 0 14.140624l22.925781 22.929688-22.925781 22.929688c-3.90625 3.90625-3.90625 10.234374 0 14.140624s10.234374 3.90625 14.140624 0l22.929688-22.925781 22.929688 22.925781c3.90625 3.90625 10.234374 3.90625 14.140624 0 3.90625-3.902343 3.90625-10.234374 0-14.140624l-22.925781-22.929688 22.925781-22.929688c3.90625-3.90625 3.90625-10.234374 0-14.140624zm0 0"/><path d="m143.070312 282.929688c-3.90625-3.90625-10.234374-3.90625-14.140624 0l-22.929688 22.925781-22.929688-22.925781c-3.90625-3.90625-10.234374-3.90625-14.140624 0-3.90625 3.902343-3.90625 10.234374 0 14.140624l22.925781 22.929688-22.925781 22.929688c-3.90625 3.90625-3.90625 10.234374 0 14.140624s10.234374 3.90625 14.140624 0l22.929688-22.925781 22.929688 22.925781c3.90625 3.90625 10.234374 3.90625 14.140624 0 3.90625-3.902343 3.90625-10.234374 0-14.140624l-22.925781-22.929688 22.925781-22.929688c3.90625-3.90625 3.90625-10.234374 0-14.140624zm0 0"/><path d="m462 80c-5.523438 0-10 4.476562-10 10v100c0 5.523438 4.476562 10 10 10s10-4.476562 10-10v-100c0-5.523438-4.476562-10-10-10zm0 0"/></svg>